<svg xmlns="http://www.w3.org/2000/svg" width="1600" height="900" fill="none" style="color-scheme:light dark" viewBox="0 0 1600 900"><style>text{font-family:&quot;Space Grotesk&quot;,&quot;Sora&quot;,&quot;IBM Plex Sans&quot;,sans-serif}</style><defs><radialGradient id="glow" cx="0" cy="0" r="1" gradientTransform="rotate(45 -250.416 556.274)scale(420)" gradientUnits="userSpaceOnUse"><stop stop-color="#EC4899" stop-opacity=".35"/><stop offset="1" stop-color="#EC4899" stop-opacity="0"/></radialGradient><clipPath id="heroClip"><rect width="1600" height="900" rx="36"/></clipPath></defs><g clip-path="url(#heroClip)"><path fill="#0B0D12" d="M0 0h1600v900H0z"/><path fill="url(#glow)" d="M0 0h1600v900H0z"/><path stroke="#1F2A37" d="M80 0v900M160 0v900M240 0v900M320 0v900M400 0v900M480 0v900M560 0v900M640 0v900M720 0v900M800 0v900M880 0v900M960 0v900m80-900v900m80-900v900m80-900v900m80-900v900m80-900v900m80-900v900m80-900v900M0 80h1600M0 160h1600M0 240h1600M0 320h1600M0 400h1600M0 480h1600M0 560h1600M0 640h1600M0 720h1600M0 800h1600M0 880h1600" opacity=".25"/><g transform="translate(120 220)scale(6.5625)"><g clip-path="url(#clip0_313_32)"><path fill="url(#paint0_linear_313_32)" d="M52 0H12C5.373 0 0 5.373 0 12v40c0 6.627 5.373 12 12 12h40c6.627 0 12-5.373 12-12V12c0-6.627-5.373-12-12-12"/><path fill="#fff" d="M41.818 17H22.182C20.977 17 20 17.806 20 18.8v32.4c0 .994.977 1.8 2.182 1.8h19.636C43.023 53 44 52.194 44 51.2V18.8c0-.994-.977-1.8-2.182-1.8" opacity=".9"/><path fill="#00ACC1" d="M38 21H26a1 1 0 1 0 0 2h12a1 1 0 1 0 0-2m0 5H26a1 1 0 1 0 0 2h12a1 1 0 1 0 0-2m-4 5h-8a1 1 0 1 0 0 2h8a1 1 0 1 0 0-2" opacity=".4"/><path fill="#4CAF50" d="M28 37h-3v12h3z" opacity=".6"/><path fill="#F44336" d="M33 41h-3v8h3z" opacity=".6"/><path fill="#FFB300" d="M39 39h-3v10h3z" opacity=".6"/><path fill="#10474E" d="M18 26a8 8 0 0 0 0 16zm28 16a8 8 0 0 0 0-16z"/><path fill="#10474E" d="m13.449 28.032 1.123-.064c.03-.878.147-1.839.309-2.745 1.122-8.48 8.378-14.227 16.613-13.723l.233.001c8.284-.376 15.595 5.358 17.247 13.774.212.898.383 1.85.464 2.725h1.124a19 19 0 0 0-.128-2.978C50.04 16 41.059 7.842 31.754 8.502q-.13-.003-.26-.002c-4.444-.023-9.307 1.154-12.773 4.383-3.488 3.192-5.057 7.811-5.311 12.168-.057.991-.06 1.973.038 2.98"/></g><defs><linearGradient id="paint0_linear_313_32" x1="0" x2="4096" y1="0" y2="4096" gradientUnits="userSpaceOnUse"><stop stop-color="#26C6DA"/><stop offset="1" stop-color="#00ACC1"/></linearGradient><clipPath id="clip0_313_32"><path fill="#fff" d="M0 0h64v64H0z"/></clipPath></defs></g><text x="760" y="320" fill="#E6EDF7" font-size="72" font-weight="700" letter-spacing="-.02em">audiodiff-report</text><text x="760" y="420" fill="#9AA8BD" font-size="30">Alignment-aware audio diffs with CI</text><text x="760" y="458" fill="#9AA8BD" font-size="30">gating and producer-friendly reports.</text><g transform="translate(760 540)"><rect width="132" height="40" fill="#111827" stroke="#263142" rx="20"/><text x="66" y="20" fill="#E6EDF7" dominant-baseline="middle" font-size="24" text-anchor="middle">Alignment</text></g><g transform="translate(906 540)"><rect width="157" height="40" fill="#111827" stroke="#263142" rx="20"/><text x="79" y="20" fill="#E6EDF7" dominant-baseline="middle" font-size="24" text-anchor="middle">HTML report</text></g><g transform="translate(1077 540)"><rect width="207" height="40" fill="#111827" stroke="#263142" rx="20"/><text x="104" y="20" fill="#E6EDF7" dominant-baseline="middle" font-size="24" text-anchor="middle">Fail thresholds</text></g></g></svg>